<?xml version="1.0" standalone="no"?>
<!DOCTYPE svg PUBLIC "-//W3C//DTD SVG 20010904//EN"
 "http://www.w3.org/TR/2001/REC-SVG-20010904/DTD/svg10.dtd">
<svg version="1.0" xmlns="http://www.w3.org/2000/svg"
 width="768.000000pt" height="768.000000pt" viewBox="0 0 768.000000 768.000000"
 preserveAspectRatio="xMidYMid meet">
<metadata>
Created by potrace 1.11, written by Peter Selinger 2001-2013
</metadata>
<g transform="translate(0.000000,768.000000) scale(0.100000,-0.100000)"
fill="#000000" stroke="none">
<path d="M3667 7554 c-1 -1 -50 -5 -110 -8 -59 -4 -115 -9 -125 -10 -9 -2 -42
-7 -72 -10 -30 -4 -66 -8 -80 -11 -14 -2 -42 -6 -62 -9 -21 -3 -57 -10 -80
-15 -24 -6 -54 -12 -68 -14 -273 -50 -733 -218 -979 -357 -39 -22 -72 -40 -75
-40 -9 0 -220 -134 -306 -193 -78 -55 -226 -170 -310 -241 -55 -47 -361 -357
-406 -412 -97 -118 -284 -377 -284 -394 0 -4 -4 -10 -8 -12 -13 -5 -124 -202
-195 -343 -160 -321 -295 -748 -343 -1085 -34 -246 -49 -630 -31 -835 13 -148
18 -200 23 -223 3 -13 7 -43 10 -65 9 -70 47 -264 65 -331 6 -22 13 -51 15
-64 3 -12 31 -102 63 -200 103 -310 194 -505 396 -840 67 -110 227 -324 340
-452 83 -94 314 -320 405 -396 285 -239 599 -431 945 -579 185 -79 499 -178
665 -209 14 -3 36 -8 50 -11 14 -3 39 -7 55 -10 17 -3 41 -7 55 -10 178 -33
381 -49 625 -49 152 0 355 9 403 19 10 2 43 6 73 9 59 7 75 9 194 32 44 8 90
17 103 20 12 2 32 6 45 8 12 3 65 16 117 30 52 15 105 29 116 31 47 11 265 89
369 133 453 190 826 437 1175 779 80 79 170 173 200 209 30 36 63 75 74 87 10
12 30 38 45 57 14 19 34 44 44 55 23 26 206 297 239 355 66 116 164 306 201
390 81 185 194 527 223 675 2 11 11 54 19 95 21 104 26 138 39 245 4 33 10 71
12 85 8 52 18 260 18 400 0 202 -11 369 -39 565 -8 50 -36 196 -49 251 -8 34
-18 74 -21 90 -8 39 -13 59 -15 59 -1 0 -4 11 -6 25 -9 51 -113 348 -159 455
-89 208 -203 421 -314 588 -25 38 -50 77 -56 86 -32 51 -178 238 -260 331 -83
94 -314 320 -405 396 -359 301 -758 525 -1199 676 -148 50 -335 100 -456 122
-16 3 -41 8 -55 11 -78 15 -83 16 -225 34 -152 19 -231 24 -428 26 -108 1
-198 1 -200 -1z"/>
</g>
</svg>
